<?xml version="1.0" encoding="UTF-8" standalone="no"?>
<!DOCTYPE svg PUBLIC "-//W3C//DTD SVG 1.1//EN"
 "http://www.w3.org/Graphics/SVG/1.1/DTD/svg11.dtd">
<!-- Generated by graphviz version 2.40.1 (20161225.0304)
 -->
<!-- Title: G Pages: 1 -->
<svg width="1177pt" height="1558pt"
 viewBox="0.00 0.00 1177.28 1558.00" xmlns="http://www.w3.org/2000/svg" xmlns:xlink="http://www.w3.org/1999/xlink">
<g id="graph0" class="graph" transform="scale(1 1) rotate(0) translate(4 1554)">
<title>G</title>
<polygon fill="#ffffff" stroke="transparent" points="-4,4 -4,-1554 1173.2757,-1554 1173.2757,4 -4,4"/>
<g id="clust1" class="cluster">
<title>cluster_Global</title>
<path fill="none" stroke="#c0c0c0" d="M20,-44C20,-44 1149.2757,-44 1149.2757,-44 1155.2757,-44 1161.2757,-50 1161.2757,-56 1161.2757,-56 1161.2757,-1530 1161.2757,-1530 1161.2757,-1536 1155.2757,-1542 1149.2757,-1542 1149.2757,-1542 20,-1542 20,-1542 14,-1542 8,-1536 8,-1530 8,-1530 8,-56 8,-56 8,-50 14,-44 20,-44"/>
<text text-anchor="middle" x="584.6378" y="-1529.2" font-family="Times,serif" font-size="11.00" fill="#c0c0c0">Global</text>
</g>
<g id="clust2" class="cluster">
<title>cluster_\App</title>
<path fill="none" stroke="#c0c0c0" d="M28,-52C28,-52 1141.2757,-52 1141.2757,-52 1147.2757,-52 1153.2757,-58 1153.2757,-64 1153.2757,-64 1153.2757,-1502 1153.2757,-1502 1153.2757,-1508 1147.2757,-1514 1141.2757,-1514 1141.2757,-1514 28,-1514 28,-1514 22,-1514 16,-1508 16,-1502 16,-1502 16,-64 16,-64 16,-58 22,-52 28,-52"/>
<text text-anchor="middle" x="584.6378" y="-1501.2" font-family="Times,serif" font-size="11.00" fill="#c0c0c0">App</text>
</g>
<g id="clust3" class="cluster">
<title>cluster_\App\Services</title>
<path fill="none" stroke="#c0c0c0" d="M36,-454C36,-454 1133.2757,-454 1133.2757,-454 1139.2757,-454 1145.2757,-460 1145.2757,-466 1145.2757,-466 1145.2757,-1474 1145.2757,-1474 1145.2757,-1480 1139.2757,-1486 1133.2757,-1486 1133.2757,-1486 36,-1486 36,-1486 30,-1486 24,-1480 24,-1474 24,-1474 24,-466 24,-466 24,-460 30,-454 36,-454"/>
<text text-anchor="middle" x="584.6378" y="-1473.2" font-family="Times,serif" font-size="11.00" fill="#c0c0c0">Services</text>
</g>
<g id="clust4" class="cluster">
<title>cluster_\App\Services\Api</title>
<path fill="none" stroke="#c0c0c0" d="M344.1378,-1188C344.1378,-1188 1086.7757,-1188 1086.7757,-1188 1092.7757,-1188 1098.7757,-1194 1098.7757,-1200 1098.7757,-1200 1098.7757,-1446 1098.7757,-1446 1098.7757,-1452 1092.7757,-1458 1086.7757,-1458 1086.7757,-1458 344.1378,-1458 344.1378,-1458 338.1378,-1458 332.1378,-1452 332.1378,-1446 332.1378,-1446 332.1378,-1200 332.1378,-1200 332.1378,-1194 338.1378,-1188 344.1378,-1188"/>
<text text-anchor="middle" x="715.4567" y="-1445.2" font-family="Times,serif" font-size="11.00" fill="#c0c0c0">Api</text>
</g>
<g id="clust5" class="cluster">
<title>cluster_\App\Services\Api\FetchingSingleFact</title>
<path fill="none" stroke="#c0c0c0" d="M603.7757,-1196C603.7757,-1196 1078.7757,-1196 1078.7757,-1196 1084.7757,-1196 1090.7757,-1202 1090.7757,-1208 1090.7757,-1208 1090.7757,-1418 1090.7757,-1418 1090.7757,-1424 1084.7757,-1430 1078.7757,-1430 1078.7757,-1430 603.7757,-1430 603.7757,-1430 597.7757,-1430 591.7757,-1424 591.7757,-1418 591.7757,-1418 591.7757,-1208 591.7757,-1208 591.7757,-1202 597.7757,-1196 603.7757,-1196"/>
<text text-anchor="middle" x="841.2757" y="-1417.2" font-family="Times,serif" font-size="11.00" fill="#c0c0c0">FetchingSingleFact</text>
</g>
<g id="clust6" class="cluster">
<title>cluster_\App\Services\Converters</title>
<path fill="none" stroke="#c0c0c0" d="M634.2757,-1108C634.2757,-1108 1088.7757,-1108 1088.7757,-1108 1094.7757,-1108 1100.7757,-1114 1100.7757,-1120 1100.7757,-1120 1100.7757,-1168 1100.7757,-1168 1100.7757,-1174 1094.7757,-1180 1088.7757,-1180 1088.7757,-1180 634.2757,-1180 634.2757,-1180 628.2757,-1180 622.2757,-1174 622.2757,-1168 622.2757,-1168 622.2757,-1120 622.2757,-1120 622.2757,-1114 628.2757,-1108 634.2757,-1108"/>
<text text-anchor="middle" x="861.5257" y="-1167.2" font-family="Times,serif" font-size="11.00" fill="#c0c0c0">Converters</text>
</g>
<g id="clust7" class="cluster">
<title>cluster_\App\Services\ResponseBuilders</title>
<path fill="none" stroke="#c0c0c0" d="M44,-696C44,-696 1125.2757,-696 1125.2757,-696 1131.2757,-696 1137.2757,-702 1137.2757,-708 1137.2757,-708 1137.2757,-1088 1137.2757,-1088 1137.2757,-1094 1131.2757,-1100 1125.2757,-1100 1125.2757,-1100 44,-1100 44,-1100 38,-1100 32,-1094 32,-1088 32,-1088 32,-708 32,-708 32,-702 38,-696 44,-696"/>
<text text-anchor="middle" x="584.6378" y="-1087.2" font-family="Times,serif" font-size="11.00" fill="#c0c0c0">ResponseBuilders</text>
</g>
<g id="clust8" class="cluster">
<title>cluster_\App\Services\ResponseBuilders\ConcreteDecorators</title>
<path fill="none" stroke="#c0c0c0" d="M572.2757,-704C572.2757,-704 1117.2757,-704 1117.2757,-704 1123.2757,-704 1129.2757,-710 1129.2757,-716 1129.2757,-716 1129.2757,-1060 1129.2757,-1060 1129.2757,-1066 1123.2757,-1072 1117.2757,-1072 1117.2757,-1072 572.2757,-1072 572.2757,-1072 566.2757,-1072 560.2757,-1066 560.2757,-1060 560.2757,-1060 560.2757,-716 560.2757,-716 560.2757,-710 566.2757,-704 572.2757,-704"/>
<text text-anchor="middle" x="844.7757" y="-1059.2" font-family="Times,serif" font-size="11.00" fill="#c0c0c0">ConcreteDecorators</text>
</g>
<g id="clust9" class="cluster">
<title>cluster_\App\Services\ResponseBuilders\ConcreteDecorators\SingleFactResponseBuilders</title>
<path fill="none" stroke="#c0c0c0" d="M580.2757,-712C580.2757,-712 1109.2757,-712 1109.2757,-712 1115.2757,-712 1121.2757,-718 1121.2757,-724 1121.2757,-724 1121.2757,-880 1121.2757,-880 1121.2757,-886 1115.2757,-892 1109.2757,-892 1109.2757,-892 580.2757,-892 580.2757,-892 574.2757,-892 568.2757,-886 568.2757,-880 568.2757,-880 568.2757,-724 568.2757,-724 568.2757,-718 574.2757,-712 580.2757,-712"/>
<text text-anchor="middle" x="844.7757" y="-879.2" font-family="Times,serif" font-size="11.00" fill="#c0c0c0">SingleFactResponseBuilders</text>
</g>
<g id="clust10" class="cluster">
<title>cluster_\App\Services\Verifiers</title>
<path fill="none" stroke="#c0c0c0" d="M901.2757,-562C901.2757,-562 1045.2757,-562 1045.2757,-562 1051.2757,-562 1057.2757,-568 1057.2757,-574 1057.2757,-574 1057.2757,-676 1057.2757,-676 1057.2757,-682 1051.2757,-688 1045.2757,-688 1045.2757,-688 901.2757,-688 901.2757,-688 895.2757,-688 889.2757,-682 889.2757,-676 889.2757,-676 889.2757,-574 889.2757,-574 889.2757,-568 895.2757,-562 901.2757,-562"/>
<text text-anchor="middle" x="973.2757" y="-675.2" font-family="Times,serif" font-size="11.00" fill="#c0c0c0">Verifiers</text>
</g>
<g id="clust11" class="cluster">
<title>cluster_\App\Http</title>
<path fill="none" stroke="#c0c0c0" d="M622.7757,-176C622.7757,-176 1046.2757,-176 1046.2757,-176 1052.2757,-176 1058.2757,-182 1058.2757,-188 1058.2757,-188 1058.2757,-434 1058.2757,-434 1058.2757,-440 1052.2757,-446 1046.2757,-446 1046.2757,-446 622.7757,-446 622.7757,-446 616.7757,-446 610.7757,-440 610.7757,-434 610.7757,-434 610.7757,-188 610.7757,-188 610.7757,-182 616.7757,-176 622.7757,-176"/>
<text text-anchor="middle" x="834.5257" y="-433.2" font-family="Times,serif" font-size="11.00" fill="#c0c0c0">Http</text>
</g>
<g id="clust12" class="cluster">
<title>cluster_\App\Http\Controllers</title>
<path fill="none" stroke="#c0c0c0" d="M630.7757,-184C630.7757,-184 1038.2757,-184 1038.2757,-184 1044.2757,-184 1050.2757,-190 1050.2757,-196 1050.2757,-196 1050.2757,-406 1050.2757,-406 1050.2757,-412 1044.2757,-418 1038.2757,-418 1038.2757,-418 630.7757,-418 630.7757,-418 624.7757,-418 618.7757,-412 618.7757,-406 618.7757,-406 618.7757,-196 618.7757,-196 618.7757,-190 624.7757,-184 630.7757,-184"/>
<text text-anchor="middle" x="834.5257" y="-405.2" font-family="Times,serif" font-size="11.00" fill="#c0c0c0">Controllers</text>
</g>
<g id="clust13" class="cluster">
<title>cluster_\App\Configs</title>
<path fill="none" stroke="#c0c0c0" d="M644.2757,-60C644.2757,-60 1022.7757,-60 1022.7757,-60 1028.7757,-60 1034.7757,-66 1034.7757,-72 1034.7757,-72 1034.7757,-156 1034.7757,-156 1034.7757,-162 1028.7757,-168 1022.7757,-168 1022.7757,-168 644.2757,-168 644.2757,-168 638.2757,-168 632.2757,-162 632.2757,-156 632.2757,-156 632.2757,-72 632.2757,-72 632.2757,-66 638.2757,-60 644.2757,-60"/>
<text text-anchor="middle" x="833.5257" y="-155.2" font-family="Times,serif" font-size="11.00" fill="#c0c0c0">Configs</text>
</g>
<g id="clust14" class="cluster">
<title>cluster_\App\Configs\ConcreteConfigs</title>
<path fill="none" stroke="#c0c0c0" d="M931.7757,-68C931.7757,-68 1014.7757,-68 1014.7757,-68 1020.7757,-68 1026.7757,-74 1026.7757,-80 1026.7757,-80 1026.7757,-128 1026.7757,-128 1026.7757,-134 1020.7757,-140 1014.7757,-140 1014.7757,-140 931.7757,-140 931.7757,-140 925.7757,-140 919.7757,-134 919.7757,-128 919.7757,-128 919.7757,-80 919.7757,-80 919.7757,-74 925.7757,-68 931.7757,-68"/>
<text text-anchor="middle" x="973.2757" y="-127.2" font-family="Times,serif" font-size="11.00" fill="#c0c0c0">ConcreteConfigs</text>
</g>
<!-- \\App\\Services\\Api\\FetchingSingleFact\\ConcreteFactFromConcreteCatApi -->
<g id="node1" class="node">
<title>\\App\\Services\\Api\\FetchingSingleFact\\ConcreteFactFromConcreteCatApi</title>
<polygon fill="none" stroke="#000000" points="1082.7757,-1240 863.7757,-1240 863.7757,-1204 1082.7757,-1204 1082.7757,-1240"/>
<text text-anchor="middle" x="973.2757" y="-1219.2" font-family="Courier,monospace" font-size="11.00" fill="#000000">ConcreteFactFromConcreteCatApi</text>
</g>
<!-- \\App\\Services\\Api\\FetchingSingleFact\\FetchingSingleFact -->
<g id="node3" class="node">
<title>\\App\\Services\\Api\\FetchingSingleFact\\FetchingSingleFact</title>
<polygon fill="none" stroke="#000000" points="737.7757,-1311 599.7757,-1311 599.7757,-1275 737.7757,-1275 737.7757,-1311"/>
<text text-anchor="start" x="634.7757" y="-1296.2" font-family="Courier,monospace" font-size="11.00" fill="#000000">«abstract»</text>
<text text-anchor="start" x="607.7757" y="-1284.2" font-family="Courier,monospace" font-size="11.00" fill="#000000">FetchingSingleFact</text>
</g>
<!-- \\App\\Services\\Api\\FetchingSingleFact\\ConcreteFactFromConcreteCatApi&#45;&gt;\\App\\Services\\Api\\FetchingSingleFact\\FetchingSingleFact -->
<g id="edge1" class="edge">
<title>\\App\\Services\\Api\\FetchingSingleFact\\ConcreteFactFromConcreteCatApi&#45;&gt;\\App\\Services\\Api\\FetchingSingleFact\\FetchingSingleFact</title>
<path fill="none" stroke="#000000" d="M875.1793,-1240.0032C861.0837,-1242.8559 846.7853,-1245.8946 833.2757,-1249 803.2502,-1255.9017 770.4102,-1264.4758 742.0228,-1272.217"/>
<polygon fill="none" stroke="#000000" points="740.8978,-1268.8962 732.1795,-1274.9162 742.7491,-1275.6469 740.8978,-1268.8962"/>
</g>
<!-- \\App\\Services\\Api\\Api -->
<g id="node6" class="node">
<title>\\App\\Services\\Api\\Api</title>
<polygon fill="none" stroke="#000000" points="394.1378,-1329 340.1378,-1329 340.1378,-1293 394.1378,-1293 394.1378,-1329"/>
<text text-anchor="middle" x="367.1378" y="-1308.2" font-family="Courier,monospace" font-size="11.00" fill="#000000">Api</text>
</g>
<!-- \\App\\Services\\Api\\FetchingSingleFact\\ConcreteFactFromConcreteCatApi&#45;&gt;\\App\\Services\\Api\\Api -->
<g id="edge2" class="edge">
<title>\\App\\Services\\Api\\FetchingSingleFact\\ConcreteFactFromConcreteCatApi&#45;&gt;\\App\\Services\\Api\\Api</title>
<path fill="none" stroke="#000000" stroke-dasharray="1,5" d="M863.7253,-1236.56C853.137,-1239.8949 842.8043,-1243.9851 833.2757,-1249 793.5056,-1269.9308 801.8782,-1300.7337 761.2757,-1320 723.9174,-1337.7268 710.1229,-1329.4721 668.7757,-1330"/>
<path fill="none" stroke="#000000" stroke-dasharray="1,5" d="M668.7757,-1330C573.2003,-1331.2202 460.9131,-1321.0836 404.0902,-1315.1346"/>
<polygon fill="none" stroke="#000000" points="404.4563,-1311.6539 394.1422,-1314.0763 403.7157,-1318.6146 404.4563,-1311.6539"/>
</g>
<!-- \\App\\Services\\Api\\FetchingSingleFact\\ConcreteFactFromRandomCatApi -->
<g id="node2" class="node">
<title>\\App\\Services\\Api\\FetchingSingleFact\\ConcreteFactFromRandomCatApi</title>
<polygon fill="none" stroke="#000000" points="1076.2757,-1294 870.2757,-1294 870.2757,-1258 1076.2757,-1258 1076.2757,-1294"/>
<text text-anchor="middle" x="973.2757" y="-1273.2" font-family="Courier,monospace" font-size="11.00" fill="#000000">ConcreteFactFromRandomCatApi</text>
</g>
<!-- \\App\\Services\\Api\\FetchingSingleFact\\ConcreteFactFromRandomCatApi&#45;&gt;\\App\\Services\\Api\\FetchingSingleFact\\FetchingSingleFact -->
<g id="edge3" class="edge">
<title>\\App\\Services\\Api\\FetchingSingleFact\\ConcreteFactFromRandomCatApi&#45;&gt;\\App\\Services\\Api\\FetchingSingleFact\\FetchingSingleFact</title>
<path fill="none" stroke="#000000" d="M870.1859,-1281.7554C830.4435,-1283.9742 785.6949,-1286.4725 748.4885,-1288.5497"/>
<polygon fill="none" stroke="#000000" points="747.9941,-1285.0718 738.2048,-1289.1238 748.3844,-1292.0609 747.9941,-1285.0718"/>
</g>
<!-- \\App\\Services\\Api\\FetchingSingleFact\\ConcreteFactFromRandomCatApi&#45;&gt;\\App\\Services\\Api\\Api -->
<g id="edge4" class="edge">
<title>\\App\\Services\\Api\\FetchingSingleFact\\ConcreteFactFromRandomCatApi&#45;&gt;\\App\\Services\\Api\\Api</title>
<path fill="none" stroke="#000000" stroke-dasharray="1,5" d="M876.7711,-1294.0692C862.177,-1296.9586 847.3137,-1299.9904 833.2757,-1303 801.1263,-1309.8924 793.6828,-1314.4445 761.2757,-1320 720.5195,-1326.9867 710.1229,-1329.4721 668.7757,-1330"/>
</g>
<!-- \\App\\Services\\Api\\FetchingSingleFact\\FetchingSingleFact&#45;&gt;\\App\\Services\\Api\\Api -->
<g id="edge5" class="edge">
<title>\\App\\Services\\Api\\FetchingSingleFact\\FetchingSingleFact&#45;&gt;\\App\\Services\\Api\\Api</title>
<path fill="none" stroke="#000000" stroke-dasharray="1,5" d="M599.5739,-1297.1296C538.8076,-1300.7557 452.7457,-1305.8914 404.2025,-1308.7882"/>
<polygon fill="none" stroke="#000000" points="403.9215,-1305.2986 394.1477,-1309.3882 404.3385,-1312.2862 403.9215,-1305.2986"/>
</g>
<!-- \\App\\Services\\Api\\FetchingSingleFact\\RandomFactFromConcreteCatApi -->
<g id="node4" class="node">
<title>\\App\\Services\\Api\\FetchingSingleFact\\RandomFactFromConcreteCatApi</title>
<polygon fill="none" stroke="#000000" points="1076.2757,-1348 870.2757,-1348 870.2757,-1312 1076.2757,-1312 1076.2757,-1348"/>
<text text-anchor="middle" x="973.2757" y="-1327.2" font-family="Courier,monospace" font-size="11.00" fill="#000000">RandomFactFromConcreteCatApi</text>
</g>
<!-- \\App\\Services\\Api\\FetchingSingleFact\\RandomFactFromConcreteCatApi&#45;&gt;\\App\\Services\\Api\\FetchingSingleFact\\FetchingSingleFact -->
<g id="edge6" class="edge">
<title>\\App\\Services\\Api\\FetchingSingleFact\\RandomFactFromConcreteCatApi&#45;&gt;\\App\\Services\\Api\\FetchingSingleFact\\FetchingSingleFact</title>
<path fill="none" stroke="#000000" d="M870.1859,-1317.4735C830.4435,-1312.6444 785.6949,-1307.2069 748.4885,-1302.686"/>
<polygon fill="none" stroke="#000000" points="748.554,-1299.1683 738.2048,-1301.4364 747.7095,-1306.1171 748.554,-1299.1683"/>
</g>
<!-- \\App\\Services\\Api\\FetchingSingleFact\\RandomFactFromConcreteCatApi&#45;&gt;\\App\\Services\\Api\\Api -->
<g id="edge7" class="edge">
<title>\\App\\Services\\Api\\FetchingSingleFact\\RandomFactFromConcreteCatApi&#45;&gt;\\App\\Services\\Api\\Api</title>
<path fill="none" stroke="#000000" stroke-dasharray="1,5" d="M870.0321,-1329.3459C811.0758,-1329.1363 735.7761,-1329.1446 668.7757,-1330"/>
</g>
<!-- \\App\\Services\\Api\\FetchingSingleFact\\RandomFactFromRandomCatApi -->
<g id="node5" class="node">
<title>\\App\\Services\\Api\\FetchingSingleFact\\RandomFactFromRandomCatApi</title>
<polygon fill="none" stroke="#000000" points="1069.2757,-1402 877.2757,-1402 877.2757,-1366 1069.2757,-1366 1069.2757,-1402"/>
<text text-anchor="middle" x="973.2757" y="-1381.2" font-family="Courier,monospace" font-size="11.00" fill="#000000">RandomFactFromRandomCatApi</text>
</g>
<!-- \\App\\Services\\Api\\FetchingSingleFact\\RandomFactFromRandomCatApi&#45;&gt;\\App\\Services\\Api\\FetchingSingleFact\\FetchingSingleFact -->
<g id="edge8" class="edge">
<title>\\App\\Services\\Api\\FetchingSingleFact\\RandomFactFromRandomCatApi&#45;&gt;\\App\\Services\\Api\\FetchingSingleFact\\FetchingSingleFact</title>
<path fill="none" stroke="#000000" d="M877.1923,-1369.9377C862.2561,-1366.4797 847.1793,-1362.2222 833.2757,-1357 798.5948,-1343.9739 795.6686,-1328.7684 761.2757,-1315 756.9081,-1313.2516 752.3666,-1311.6198 747.744,-1310.1003"/>
<polygon fill="none" stroke="#000000" points="748.7591,-1306.7507 738.1713,-1307.1378 746.6895,-1313.4378 748.7591,-1306.7507"/>
</g>
<!-- \\App\\Services\\Api\\FetchingSingleFact\\RandomFactFromRandomCatApi&#45;&gt;\\App\\Services\\Api\\Api -->
<g id="edge9" class="edge">
<title>\\App\\Services\\Api\\FetchingSingleFact\\RandomFactFromRandomCatApi&#45;&gt;\\App\\Services\\Api\\Api</title>
<path fill="none" stroke="#000000" stroke-dasharray="1,5" d="M877.0151,-1366.0336C791.8084,-1350.2709 679.3281,-1329.8653 668.7757,-1330"/>
</g>
<!-- \\App\\Services\\Converters\\FactNumberToLeadingZerosConverter -->
<g id="node7" class="node">
<title>\\App\\Services\\Converters\\FactNumberToLeadingZerosConverter</title>
<polygon fill="none" stroke="#000000" points="1092.7757,-1152 853.7757,-1152 853.7757,-1116 1092.7757,-1116 1092.7757,-1152"/>
<text text-anchor="middle" x="973.2757" y="-1131.2" font-family="Courier,monospace" font-size="11.00" fill="#000000">FactNumberToLeadingZerosConverter</text>
</g>
<!-- \\App\\Services\\Converters\\Converter -->
<g id="node8" class="node">
<title>\\App\\Services\\Converters\\Converter</title>
<polygon fill="none" stroke="#000000" points="707.2757,-1152 630.2757,-1152 630.2757,-1116 707.2757,-1116 707.2757,-1152"/>
<text text-anchor="middle" x="668.7757" y="-1131.2" font-family="Courier,monospace" font-size="11.00" fill="#000000">Converter</text>
</g>
<!-- \\App\\Services\\Converters\\FactNumberToLeadingZerosConverter&#45;&gt;\\App\\Services\\Converters\\Converter -->
<g id="edge10" class="edge">
<title>\\App\\Services\\Converters\\FactNumberToLeadingZerosConverter&#45;&gt;\\App\\Services\\Converters\\Converter</title>
<path fill="none" stroke="#000000" stroke-dasharray="1,5" d="M853.3663,-1134C806.1062,-1134 754.4875,-1134 717.8827,-1134"/>
<polygon fill="none" stroke="#000000" points="717.5002,-1130.5001 707.5002,-1134 717.5001,-1137.5001 717.5002,-1130.5001"/>
</g>
<!-- \\App\\Services\\ResponseBuilders\\ConcreteDecorators\\SingleFactResponseBuilders\\NotFoundFactNumberResponseBuilder -->
<g id="node9" class="node">
<title>\\App\\Services\\ResponseBuilders\\ConcreteDecorators\\SingleFactResponseBuilders\\NotFoundFactNumberResponseBuilder</title>
<polygon fill="none" stroke="#000000" points="1092.7757,-756 853.7757,-756 853.7757,-720 1092.7757,-720 1092.7757,-756"/>
<text text-anchor="middle" x="973.2757" y="-735.2" font-family="Courier,monospace" font-size="11.00" fill="#000000">NotFoundFactNumberResponseBuilder</text>
</g>
<!-- \\App\\Services\\ResponseBuilders\\ConcreteDecorators\\SingleFactResponseBuilders\\SingleFactResponseBuilder -->
<g id="node11" class="node">
<title>\\App\\Services\\ResponseBuilders\\ConcreteDecorators\\SingleFactResponseBuilders\\SingleFactResponseBuilder</title>
<polygon fill="none" stroke="#000000" points="761.2757,-864 576.2757,-864 576.2757,-828 761.2757,-828 761.2757,-864"/>
<text text-anchor="start" x="634.7757" y="-849.2" font-family="Courier,monospace" font-size="11.00" fill="#000000">«abstract»</text>
<text text-anchor="start" x="584.2757" y="-837.2" font-family="Courier,monospace" font-size="11.00" fill="#000000">SingleFactResponseBuilder</text>
</g>
<!-- \\App\\Services\\ResponseBuilders\\ConcreteDecorators\\SingleFactResponseBuilders\\NotFoundFactNumberResponseBuilder&#45;&gt;\\App\\Services\\ResponseBuilders\\ConcreteDecorators\\SingleFactResponseBuilders\\SingleFactResponseBuilder -->
<g id="edge19" class="edge">
<title>\\App\\Services\\ResponseBuilders\\ConcreteDecorators\\SingleFactResponseBuilders\\NotFoundFactNumberResponseBuilder&#45;&gt;\\App\\Services\\ResponseBuilders\\ConcreteDecorators\\SingleFactResponseBuilders\\SingleFactResponseBuilder</title>
<path fill="none" stroke="#000000" d="M855.7637,-756.1151C848.0136,-758.6926 840.4473,-761.6368 833.2757,-765 798.452,-781.3306 798.189,-802.4168 761.5618,-823.214"/>
<polygon fill="none" stroke="#000000" points="759.8205,-820.1752 752.5968,-827.9256 763.077,-826.3716 759.8205,-820.1752"/>
</g>
<!-- \\App\\Services\\ResponseBuilders\\ResponseBuilder -->
<g id="node18" class="node">
<title>\\App\\Services\\ResponseBuilders\\ResponseBuilder</title>
<polygon fill="none" stroke="#000000" points="158,-886 40,-886 40,-850 158,-850 158,-886"/>
<text text-anchor="middle" x="99" y="-865.2" font-family="Courier,monospace" font-size="11.00" fill="#000000">ResponseBuilder</text>
</g>
<!-- \\App\\Services\\ResponseBuilders\\ConcreteDecorators\\SingleFactResponseBuilders\\NotFoundFactNumberResponseBuilder&#45;&gt;\\App\\Services\\ResponseBuilders\\ResponseBuilder -->
<g id="edge20" class="edge">
<title>\\App\\Services\\ResponseBuilders\\ConcreteDecorators\\SingleFactResponseBuilders\\NotFoundFactNumberResponseBuilder&#45;&gt;\\App\\Services\\ResponseBuilders\\ResponseBuilder</title>
<path fill="none" stroke="#000000" stroke-dasharray="1,5" d="M862.7462,-756.0095C852.6721,-758.6404 842.7153,-761.624 833.2757,-765 799.0084,-777.2556 796.299,-794.1102 761.2757,-804 721.6539,-815.1883 709.9456,-808.6846 668.7757,-809"/>
<path fill="none" stroke="#000000" stroke-dasharray="1,5" d="M668.7757,-809C635.1949,-809.2573 400.6255,-825.488 367.1378,-828"/>
<path fill="none" stroke="#000000" stroke-dasharray="1,5" d="M367.1378,-828C299.1241,-833.1018 222.1927,-845.2446 168.2326,-854.8225"/>
<polygon fill="none" stroke="#000000" points="167.3198,-851.4302 158.0943,-856.6398 168.555,-858.3204 167.3198,-851.4302"/>
</g>
<!-- \\App\\Services\\ResponseBuilders\\ConcreteDecorators\\SingleFactResponseBuilders\\NotFoundNumberInCategoryResponseBuilder -->
<g id="node10" class="node">
<title>\\App\\Services\\ResponseBuilders\\ConcreteDecorators\\SingleFactResponseBuilders\\NotFoundNumberInCategoryResponseBuilder</title>
<polygon fill="none" stroke="#000000" points="1113.2757,-810 833.2757,-810 833.2757,-774 1113.2757,-774 1113.2757,-810"/>
<text text-anchor="middle" x="973.2757" y="-789.2" font-family="Courier,monospace" font-size="11.00" fill="#000000">NotFoundNumberInCategoryResponseBuilder</text>
</g>
<!-- \\App\\Services\\ResponseBuilders\\ConcreteDecorators\\SingleFactResponseBuilders\\NotFoundNumberInCategoryResponseBuilder&#45;&gt;\\App\\Services\\ResponseBuilders\\ConcreteDecorators\\SingleFactResponseBuilders\\SingleFactResponseBuilder -->
<g id="edge21" class="edge">
<title>\\App\\Services\\ResponseBuilders\\ConcreteDecorators\\SingleFactResponseBuilders\\NotFoundNumberInCategoryResponseBuilder&#45;&gt;\\App\\Services\\ResponseBuilders\\ConcreteDecorators\\SingleFactResponseBuilders\\SingleFactResponseBuilder</title>
<path fill="none" stroke="#000000" d="M871.4582,-810.0563C839.2599,-815.7663 803.6691,-822.078 771.4137,-827.7982"/>
<polygon fill="none" stroke="#000000" points="770.7531,-824.3606 761.5179,-829.5531 771.9754,-831.2531 770.7531,-824.3606"/>
</g>
<!-- \\App\\Services\\ResponseBuilders\\ConcreteDecorators\\SingleFactResponseBuilders\\NotFoundNumberInCategoryResponseBuilder&#45;&gt;\\App\\Services\\ResponseBuilders\\ResponseBuilder -->
<g id="edge22" class="edge">
<title>\\App\\Services\\ResponseBuilders\\ConcreteDecorators\\SingleFactResponseBuilders\\NotFoundNumberInCategoryResponseBuilder&#45;&gt;\\App\\Services\\ResponseBuilders\\ResponseBuilder</title>
<path fill="none" stroke="#000000" stroke-dasharray="1,5" d="M833.1412,-802.652C781.5083,-805.8306 722.5152,-808.5883 668.7757,-809"/>
</g>
<!-- \\App\\Services\\ResponseBuilders\\ResponseBuilderDecorator -->
<g id="node17" class="node">
<title>\\App\\Services\\ResponseBuilders\\ResponseBuilderDecorator</title>
<polygon fill="none" stroke="#000000" points="456.6378,-927 277.6378,-927 277.6378,-891 456.6378,-891 456.6378,-927"/>
<text text-anchor="start" x="333.1378" y="-912.2" font-family="Courier,monospace" font-size="11.00" fill="#000000">«abstract»</text>
<text text-anchor="start" x="285.6378" y="-900.2" font-family="Courier,monospace" font-size="11.00" fill="#000000">ResponseBuilderDecorator</text>
</g>
<!-- \\App\\Services\\ResponseBuilders\\ConcreteDecorators\\SingleFactResponseBuilders\\SingleFactResponseBuilder&#45;&gt;\\App\\Services\\ResponseBuilders\\ResponseBuilderDecorator -->
<g id="edge23" class="edge">
<title>\\App\\Services\\ResponseBuilders\\ConcreteDecorators\\SingleFactResponseBuilders\\SingleFactResponseBuilder&#45;&gt;\\App\\Services\\ResponseBuilders\\ResponseBuilderDecorator</title>
<path fill="none" stroke="#000000" d="M579.6505,-864.0035C573.0925,-865.3491 566.5801,-866.6917 560.2757,-868 528.0217,-874.6933 492.767,-882.139 461.3094,-888.8291"/>
<polygon fill="none" stroke="#000000" points="460.2903,-885.4675 451.238,-890.9727 461.7476,-892.3142 460.2903,-885.4675"/>
</g>
<!-- \\App\\Services\\ResponseBuilders\\ConcreteDecorators\\SingleFactResponseBuilders\\SingleFactResponseBuilder&#45;&gt;\\App\\Services\\ResponseBuilders\\ResponseBuilder -->
<g id="edge24" class="edge">
<title>\\App\\Services\\ResponseBuilders\\ConcreteDecorators\\SingleFactResponseBuilders\\SingleFactResponseBuilder&#45;&gt;\\App\\Services\\ResponseBuilders\\ResponseBuilder</title>
<path fill="none" stroke="#000000" stroke-dasharray="1,5" d="M575.981,-834.0154C516.3012,-827.9006 437.1076,-822.7515 367.1378,-828"/>
</g>
<!-- \\App\\Services\\ResponseBuilders\\ConcreteDecorators\\SingleFactResponseBuilders\\SuccessFactResponseBuilder -->
<g id="node12" class="node">
<title>\\App\\Services\\ResponseBuilders\\ConcreteDecorators\\SingleFactResponseBuilders\\SuccessFactResponseBuilder</title>
<polygon fill="none" stroke="#000000" points="1069.2757,-864 877.2757,-864 877.2757,-828 1069.2757,-828 1069.2757,-864"/>
<text text-anchor="middle" x="973.2757" y="-843.2" font-family="Courier,monospace" font-size="11.00" fill="#000000">SuccessFactResponseBuilder</text>
</g>
<!-- \\App\\Services\\ResponseBuilders\\ConcreteDecorators\\SingleFactResponseBuilders\\SuccessFactResponseBuilder&#45;&gt;\\App\\Services\\ResponseBuilders\\ConcreteDecorators\\SingleFactResponseBuilders\\SingleFactResponseBuilder -->
<g id="edge25" class="edge">
<title>\\App\\Services\\ResponseBuilders\\ConcreteDecorators\\SingleFactResponseBuilders\\SuccessFactResponseBuilder&#45;&gt;\\App\\Services\\ResponseBuilders\\ConcreteDecorators\\SingleFactResponseBuilders\\SingleFactResponseBuilder</title>
<path fill="none" stroke="#000000" d="M876.93,-846C843.4548,-846 805.7925,-846 771.7991,-846"/>
<polygon fill="none" stroke="#000000" points="771.376,-842.5001 761.3759,-846 771.3759,-849.5001 771.376,-842.5001"/>
</g>
<!-- \\App\\Services\\ResponseBuilders\\ConcreteDecorators\\SingleFactResponseBuilders\\SuccessFactResponseBuilder&#45;&gt;\\App\\Services\\ResponseBuilders\\ResponseBuilder -->
<g id="edge26" class="edge">
<title>\\App\\Services\\ResponseBuilders\\ConcreteDecorators\\SingleFactResponseBuilders\\SuccessFactResponseBuilder&#45;&gt;\\App\\Services\\ResponseBuilders\\ResponseBuilder</title>
<path fill="none" stroke="#000000" stroke-dasharray="1,5" d="M877.6359,-827.9878C817.8286,-818.3154 739.0681,-808.4614 668.7757,-809"/>
</g>
<!-- \\App\\Services\\ResponseBuilders\\ConcreteDecorators\\DbResponseFinalArrayBuilder -->
<g id="node13" class="node">
<title>\\App\\Services\\ResponseBuilders\\ConcreteDecorators\\DbResponseFinalArrayBuilder</title>
<polygon fill="none" stroke="#000000" points="1072.7757,-936 873.7757,-936 873.7757,-900 1072.7757,-900 1072.7757,-936"/>
<text text-anchor="middle" x="973.2757" y="-915.2" font-family="Courier,monospace" font-size="11.00" fill="#000000">DbResponseFinalArrayBuilder</text>
</g>
<!-- \\App\\Services\\ResponseBuilders\\ConcreteDecorators\\DbResponseFinalArrayBuilder&#45;&gt;\\App\\Services\\ResponseBuilders\\ResponseBuilderDecorator -->
<g id="edge13" class="edge">
<title>\\App\\Services\\ResponseBuilders\\ConcreteDecorators\\DbResponseFinalArrayBuilder&#45;&gt;\\App\\Services\\ResponseBuilders\\ResponseBuilderDecorator</title>
<path fill="none" stroke="#000000" d="M873.5239,-916.5189C761.2577,-914.8519 579.9097,-912.1593 467.4246,-910.4891"/>
<polygon fill="none" stroke="#000000" points="467.1461,-906.9846 457.0952,-910.3357 467.0421,-913.9839 467.1461,-906.9846"/>
</g>
<!-- \\App\\Services\\ResponseBuilders\\ConcreteDecorators\\DbResponseFinalArrayBuilder&#45;&gt;\\App\\Services\\ResponseBuilders\\ResponseBuilder -->
<g id="edge14" class="edge">
<title>\\App\\Services\\ResponseBuilders\\ConcreteDecorators\\DbResponseFinalArrayBuilder&#45;&gt;\\App\\Services\\ResponseBuilders\\ResponseBuilder</title>
<path fill="none" stroke="#000000" stroke-dasharray="1,5" d="M873.4692,-910.6927C859.4805,-907.3019 845.6667,-902.568 833.2757,-896 791.8791,-874.0573 803.1888,-839.9392 761.2757,-819 724.2844,-800.5197 710.1251,-808.6832 668.7757,-809"/>
</g>
<!-- \\App\\Services\\ResponseBuilders\\ConcreteDecorators\\FactsDataSingleRecordBuilder -->
<g id="node14" class="node">
<title>\\App\\Services\\ResponseBuilders\\ConcreteDecorators\\FactsDataSingleRecordBuilder</title>
<polygon fill="none" stroke="#000000" points="1076.2757,-990 870.2757,-990 870.2757,-954 1076.2757,-954 1076.2757,-990"/>
<text text-anchor="middle" x="973.2757" y="-969.2" font-family="Courier,monospace" font-size="11.00" fill="#000000">FactsDataSingleRecordBuilder</text>
</g>
<!-- \\App\\Services\\ResponseBuilders\\ConcreteDecorators\\FactsDataSingleRecordBuilder&#45;&gt;\\App\\Services\\ResponseBuilders\\ResponseBuilderDecorator -->
<g id="edge15" class="edge">
<title>\\App\\Services\\ResponseBuilders\\ConcreteDecorators\\FactsDataSingleRecordBuilder&#45;&gt;\\App\\Services\\ResponseBuilders\\ResponseBuilderDecorator</title>
<path fill="none" stroke="#000000" d="M870.7592,-953.9535C811.8736,-944.4849 736.4051,-933.8642 668.7757,-929"/>
<path fill="none" stroke="#000000" d="M668.7757,-929C601.4765,-924.1595 525.6985,-919.1367 466.9309,-915.3356"/>
<polygon fill="none" stroke="#000000" points="467.112,-911.84 456.9072,-914.6884 466.6609,-918.8255 467.112,-911.84"/>
</g>
<!-- \\App\\Services\\ResponseBuilders\\ConcreteDecorators\\FactsDataSingleRecordBuilder&#45;&gt;\\App\\Services\\ResponseBuilders\\ResponseBuilder -->
<g id="edge16" class="edge">
<title>\\App\\Services\\ResponseBuilders\\ConcreteDecorators\\FactsDataSingleRecordBuilder&#45;&gt;\\App\\Services\\ResponseBuilders\\ResponseBuilder</title>
<path fill="none" stroke="#000000" stroke-dasharray="1,5" d="M668.7757,-929C534.822,-919.3654 500.3043,-964.41 367.1378,-947"/>
<path fill="none" stroke="#000000" stroke-dasharray="1,5" d="M367.1378,-947C306.5079,-939.0733 288.7744,-952.8639 230,-936 195.8489,-926.2012 160.2632,-907.0694 134.8148,-891.5887"/>
<polygon fill="none" stroke="#000000" points="136.5994,-888.5771 126.2552,-886.2866 132.9133,-894.5279 136.5994,-888.5771"/>
</g>
<!-- \\App\\Services\\ResponseBuilders\\ConcreteDecorators\\JSONResponseBuilder -->
<g id="node15" class="node">
<title>\\App\\Services\\ResponseBuilders\\ConcreteDecorators\\JSONResponseBuilder</title>
<polygon fill="none" stroke="#000000" points="1045.7757,-1044 900.7757,-1044 900.7757,-1008 1045.7757,-1008 1045.7757,-1044"/>
<text text-anchor="middle" x="973.2757" y="-1023.2" font-family="Courier,monospace" font-size="11.00" fill="#000000">JSONResponseBuilder</text>
</g>
<!-- \\App\\Services\\ResponseBuilders\\ConcreteDecorators\\JSONResponseBuilder&#45;&gt;\\App\\Services\\ResponseBuilders\\ResponseBuilderDecorator -->
<g id="edge17" class="edge">
<title>\\App\\Services\\ResponseBuilders\\ConcreteDecorators\\JSONResponseBuilder&#45;&gt;\\App\\Services\\ResponseBuilders\\ResponseBuilderDecorator</title>
<path fill="none" stroke="#000000" d="M900.6582,-1013.49C878.8873,-1009.338 855.0205,-1004.3858 833.2757,-999 759.1032,-980.6286 744.2304,-961.0681 668.7757,-949"/>
<path fill="none" stroke="#000000" d="M668.7757,-949C649.0163,-945.8397 546.9791,-932.4079 466.9821,-921.9705"/>
<polygon fill="none" stroke="#000000" points="467.2155,-918.4713 456.8469,-920.6487 466.3103,-925.4126 467.2155,-918.4713"/>
</g>
<!-- \\App\\Services\\ResponseBuilders\\ConcreteDecorators\\JSONResponseBuilder&#45;&gt;\\App\\Services\\ResponseBuilders\\ResponseBuilder -->
<g id="edge18" class="edge">
<title>\\App\\Services\\ResponseBuilders\\ConcreteDecorators\\JSONResponseBuilder&#45;&gt;\\App\\Services\\ResponseBuilders\\ResponseBuilder</title>
<path fill="none" stroke="#000000" stroke-dasharray="1,5" d="M668.7757,-949C536.3939,-927.8272 500.0708,-964.3795 367.1378,-947"/>
</g>
<!-- \\App\\Services\\ResponseBuilders\\RB -->
<g id="node16" class="node">
<title>\\App\\Services\\ResponseBuilders\\RB</title>
<polygon fill="none" stroke="#000000" points="394.1378,-809 340.1378,-809 340.1378,-773 394.1378,-773 394.1378,-809"/>
<text text-anchor="middle" x="367.1378" y="-788.2" font-family="Courier,monospace" font-size="11.00" fill="#000000">RB</text>
</g>
<!-- \\App\\Services\\ResponseBuilders\\RB&#45;&gt;\\App\\Services\\ResponseBuilders\\ResponseBuilder -->
<g id="edge27" class="edge">
<title>\\App\\Services\\ResponseBuilders\\RB&#45;&gt;\\App\\Services\\ResponseBuilders\\ResponseBuilder</title>
<path fill="none" stroke="#000000" stroke-dasharray="1,5" d="M340.1263,-796.4547C312.3167,-802.2682 267.8281,-812.1199 230,-823 205.9361,-829.9213 179.7755,-838.6569 157.2049,-846.5859"/>
<polygon fill="none" stroke="#000000" points="156.0266,-843.2901 147.7681,-849.927 158.3629,-849.8887 156.0266,-843.2901"/>
</g>
<!-- \\App\\Services\\ResponseBuilders\\ResponseBuilderDecorator&#45;&gt;\\App\\Services\\ResponseBuilders\\ResponseBuilder -->
<g id="edge28" class="edge">
<title>\\App\\Services\\ResponseBuilders\\ResponseBuilderDecorator&#45;&gt;\\App\\Services\\ResponseBuilders\\ResponseBuilder</title>
<path fill="none" stroke="#000000" stroke-dasharray="1,5" d="M277.479,-895.2906C241.8822,-889.8476 201.5765,-883.6846 168.2861,-878.5943"/>
<polygon fill="none" stroke="#000000" points="168.607,-875.1028 158.1928,-877.051 167.5489,-882.0223 168.607,-875.1028"/>
</g>
<!-- \\App\\Services\\Verifiers\\FactCategoryVerifier -->
<g id="node19" class="node">
<title>\\App\\Services\\Verifiers\\FactCategoryVerifier</title>
<polygon fill="none" stroke="#000000" points="1049.2757,-660 897.2757,-660 897.2757,-624 1049.2757,-624 1049.2757,-660"/>
<text text-anchor="middle" x="973.2757" y="-639.2" font-family="Courier,monospace" font-size="11.00" fill="#000000">FactCategoryVerifier</text>
</g>
<!-- \\App\\Services\\Verifiers\\FactNumberVerifier -->
<g id="node20" class="node">
<title>\\App\\Services\\Verifiers\\FactNumberVerifier</title>
<polygon fill="none" stroke="#000000" points="1042.2757,-606 904.2757,-606 904.2757,-570 1042.2757,-570 1042.2757,-606"/>
<text text-anchor="middle" x="973.2757" y="-585.2" font-family="Courier,monospace" font-size="11.00" fill="#000000">FactNumberVerifier</text>
</g>
<!-- \\App\\Services\\DbFactsGetterService -->
<g id="node21" class="node">
<title>\\App\\Services\\DbFactsGetterService</title>
<polygon fill="none" stroke="#000000" points="1049.2757,-552 897.2757,-552 897.2757,-516 1049.2757,-516 1049.2757,-552"/>
<text text-anchor="middle" x="973.2757" y="-531.2" font-family="Courier,monospace" font-size="11.00" fill="#000000">DbFactsGetterService</text>
</g>
<!-- \\App\\Services\\Service -->
<g id="node23" class="node">
<title>\\App\\Services\\Service</title>
<polygon fill="none" stroke="#000000" points="700.7757,-525 636.7757,-525 636.7757,-489 700.7757,-489 700.7757,-525"/>
<text text-anchor="middle" x="668.7757" y="-504.2" font-family="Courier,monospace" font-size="11.00" fill="#000000">Service</text>
</g>
<!-- \\App\\Services\\DbFactsGetterService&#45;&gt;\\App\\Services\\Service -->
<g id="edge11" class="edge">
<title>\\App\\Services\\DbFactsGetterService&#45;&gt;\\App\\Services\\Service</title>
<path fill="none" stroke="#000000" stroke-dasharray="1,5" d="M897.2229,-527.2564C838.3067,-522.0323 758.8797,-514.9895 710.8798,-510.7334"/>
<polygon fill="none" stroke="#000000" points="711.112,-507.2403 700.8419,-509.8433 710.4936,-514.213 711.112,-507.2403"/>
</g>
<!-- \\App\\Services\\RandomService -->
<g id="node22" class="node">
<title>\\App\\Services\\RandomService</title>
<polygon fill="none" stroke="#000000" points="1025.2757,-498 921.2757,-498 921.2757,-462 1025.2757,-462 1025.2757,-498"/>
<text text-anchor="middle" x="973.2757" y="-477.2" font-family="Courier,monospace" font-size="11.00" fill="#000000">RandomService</text>
</g>
<!-- \\App\\Services\\RandomService&#45;&gt;\\App\\Services\\Service -->
<g id="edge12" class="edge">
<title>\\App\\Services\\RandomService&#45;&gt;\\App\\Services\\Service</title>
<path fill="none" stroke="#000000" stroke-dasharray="1,5" d="M920.9302,-484.6415C861.5049,-489.9107 765.7239,-498.4036 710.9043,-503.2645"/>
<polygon fill="none" stroke="#000000" points="710.488,-499.7875 700.8363,-504.1572 711.1064,-506.7602 710.488,-499.7875"/>
</g>
<!-- \\App\\Http\\Controllers\\Controller -->
<g id="node24" class="node">
<title>\\App\\Http\\Controllers\\Controller</title>
<polygon fill="none" stroke="#000000" points="710.7757,-282 626.7757,-282 626.7757,-246 710.7757,-246 710.7757,-282"/>
<text text-anchor="middle" x="668.7757" y="-261.2" font-family="Courier,monospace" font-size="11.00" fill="#000000">Controller</text>
</g>
<!-- \\Laravel\\Lumen\\Routing\\Controller -->
<g id="node31" class="node">
<title>\\Laravel\\Lumen\\Routing\\Controller</title>
<ellipse fill="none" stroke="#000000" cx="367.1378" cy="-18" rx="137.2758" ry="18"/>
<text text-anchor="middle" x="367.1378" y="-14.3" font-family="Times,serif" font-size="14.00" fill="#c0c0c0">\Laravel\Lumen\Routing\Controller</text>
</g>
<!-- \\App\\Http\\Controllers\\Controller&#45;&gt;\\Laravel\\Lumen\\Routing\\Controller -->
<g id="edge29" class="edge">
<title>\\App\\Http\\Controllers\\Controller&#45;&gt;\\Laravel\\Lumen\\Routing\\Controller</title>
<path fill="none" stroke="#000000" d="M646.5955,-245.911C593.1894,-202.3558 457.4113,-91.6223 396.9576,-42.3195"/>
<polygon fill="none" stroke="#000000" points="398.9053,-39.3915 388.9437,-35.7837 394.4812,-44.8162 398.9053,-39.3915"/>
</g>
<!-- \\App\\Http\\Controllers\\ErrorsController -->
<g id="node25" class="node">
<title>\\App\\Http\\Controllers\\ErrorsController</title>
<polygon fill="none" stroke="#000000" points="1035.7757,-390 910.7757,-390 910.7757,-354 1035.7757,-354 1035.7757,-390"/>
<text text-anchor="middle" x="973.2757" y="-369.2" font-family="Courier,monospace" font-size="11.00" fill="#000000">ErrorsController</text>
</g>
<!-- \\App\\Http\\Controllers\\ErrorsController&#45;&gt;\\App\\Http\\Controllers\\Controller -->
<g id="edge30" class="edge">
<title>\\App\\Http\\Controllers\\ErrorsController&#45;&gt;\\App\\Http\\Controllers\\Controller</title>
<path fill="none" stroke="#000000" d="M910.6767,-363.5983C886.1599,-359.3619 858.0315,-353.3148 833.2757,-345 788.5904,-329.9914 740.5611,-305.2446 708.0072,-287.0469"/>
<polygon fill="none" stroke="#000000" points="709.6797,-283.9719 699.2513,-282.1014 706.2371,-290.0669 709.6797,-283.9719"/>
</g>
<!-- \\App\\Http\\Controllers\\ExampleController -->
<g id="node26" class="node">
<title>\\App\\Http\\Controllers\\ExampleController</title>
<polygon fill="none" stroke="#000000" points="1038.7757,-336 907.7757,-336 907.7757,-300 1038.7757,-300 1038.7757,-336"/>
<text text-anchor="middle" x="973.2757" y="-315.2" font-family="Courier,monospace" font-size="11.00" fill="#000000">ExampleController</text>
</g>
<!-- \\App\\Http\\Controllers\\ExampleController&#45;&gt;\\App\\Http\\Controllers\\Controller -->
<g id="edge31" class="edge">
<title>\\App\\Http\\Controllers\\ExampleController&#45;&gt;\\App\\Http\\Controllers\\Controller</title>
<path fill="none" stroke="#000000" d="M907.5786,-306.3493C851.6866,-296.4374 772.4911,-282.3929 720.8832,-273.2407"/>
<polygon fill="none" stroke="#000000" points="721.4021,-269.7782 710.9445,-271.4782 720.1797,-276.6707 721.4021,-269.7782"/>
</g>
<!-- \\App\\Http\\Controllers\\FactsApiController -->
<g id="node27" class="node">
<title>\\App\\Http\\Controllers\\FactsApiController</title>
<polygon fill="none" stroke="#000000" points="1042.2757,-282 904.2757,-282 904.2757,-246 1042.2757,-246 1042.2757,-282"/>
<text text-anchor="middle" x="973.2757" y="-261.2" font-family="Courier,monospace" font-size="11.00" fill="#000000">FactsApiController</text>
</g>
<!-- \\App\\Http\\Controllers\\FactsApiController&#45;&gt;\\App\\Http\\Controllers\\Controller -->
<g id="edge32" class="edge">
<title>\\App\\Http\\Controllers\\FactsApiController&#45;&gt;\\App\\Http\\Controllers\\Controller</title>
<path fill="none" stroke="#000000" d="M904.1799,-264C848.5298,-264 771.4985,-264 720.9274,-264"/>
<polygon fill="none" stroke="#000000" points="720.8678,-260.5001 710.8677,-264 720.8677,-267.5001 720.8678,-260.5001"/>
</g>
<!-- \\App\\Http\\Controllers\\IndexController -->
<g id="node28" class="node">
<title>\\App\\Http\\Controllers\\IndexController</title>
<polygon fill="none" stroke="#000000" points="1032.2757,-228 914.2757,-228 914.2757,-192 1032.2757,-192 1032.2757,-228"/>
<text text-anchor="middle" x="973.2757" y="-207.2" font-family="Courier,monospace" font-size="11.00" fill="#000000">IndexController</text>
</g>
<!-- \\App\\Http\\Controllers\\IndexController&#45;&gt;\\App\\Http\\Controllers\\Controller -->
<g id="edge33" class="edge">
<title>\\App\\Http\\Controllers\\IndexController&#45;&gt;\\App\\Http\\Controllers\\Controller</title>
<path fill="none" stroke="#000000" d="M914.204,-220.4758C858.149,-230.4166 774.7132,-245.213 721.0252,-254.7341"/>
<polygon fill="none" stroke="#000000" points="720.2659,-251.314 711.0307,-256.5065 721.4882,-258.2065 720.2659,-251.314"/>
</g>
<!-- \\App\\Configs\\ConcreteConfigs\\FactsConfig -->
<g id="node29" class="node">
<title>\\App\\Configs\\ConcreteConfigs\\FactsConfig</title>
<polygon fill="none" stroke="#000000" points="1018.7757,-112 927.7757,-112 927.7757,-76 1018.7757,-76 1018.7757,-112"/>
<text text-anchor="middle" x="973.2757" y="-91.2" font-family="Courier,monospace" font-size="11.00" fill="#000000">FactsConfig</text>
</g>
<!-- \\App\\Configs\\Config -->
<g id="node30" class="node">
<title>\\App\\Configs\\Config</title>
<polygon fill="none" stroke="#000000" points="697.2757,-112 640.2757,-112 640.2757,-76 697.2757,-76 697.2757,-112"/>
<text text-anchor="middle" x="668.7757" y="-91.2" font-family="Courier,monospace" font-size="11.00" fill="#000000">Config</text>
</g>
<!-- \\App\\Configs\\ConcreteConfigs\\FactsConfig&#45;&gt;\\App\\Configs\\Config -->
<g id="edge34" class="edge">
<title>\\App\\Configs\\ConcreteConfigs\\FactsConfig&#45;&gt;\\App\\Configs\\Config</title>
<path fill="none" stroke="#000000" stroke-dasharray="1,5" d="M927.6889,-94C867.8373,-94 763.7907,-94 707.5409,-94"/>
<polygon fill="none" stroke="#000000" points="707.2855,-90.5001 697.2854,-94 707.2854,-97.5001 707.2855,-90.5001"/>
</g>
</g>
</svg>
